<?xml version="1.0" encoding="utf-8"?>
<svg viewBox="0 0 500 500" xmlns="http://www.w3.org/2000/svg">
  <g transform="matrix(0.10000000149011612, 0, 0, -0.10000000149011612, -17.654163360595646, 433.37188720703125)" fill="#000000" stroke="none">
    <rect x="3337.71" y="-1165.836" width="57.47" height="17.7" style="stroke: rgb(0, 116, 106); fill: rgb(0, 116, 106); stroke-width: 0px;" transform="matrix(1, 0, 0, -1, 0, 0)"/>
    <rect x="3261.091" y="-1107.326" width="51.62" height="49.82" style="stroke: rgb(0, 116, 106); stroke-width: 0px; fill: rgb(0, 116, 106);" transform="matrix(1, 0, 0, -1, 0, 0)"/>
    <rect x="2475.241" y="-1107.826" width="133.72" height="49.85" style="stroke: rgb(0, 116, 106); stroke-width: 0px; fill: rgb(0, 116, 106);" transform="matrix(1, 0, 0, -1, 0, 0)"/>
    <rect x="2395.521" y="-1217.456" width="219.8" height="44.89" style="stroke-width: 0px; stroke: rgb(0, 116, 106); fill: rgb(0, 116, 106);" transform="matrix(1, 0, 0, -1, 0, 0)"/>
    <rect x="2396.241" y="-992.637" width="219.21" height="44.68" style="fill: rgb(0, 116, 106); stroke: rgb(0, 116, 106); stroke-width: 0px;" transform="matrix(1, 0, 0, -1, 0, 0)"/>
    <rect x="1625.331" y="-1218.056" width="219.8" height="44.89" style="stroke-width: 0px; stroke: rgb(0, 116, 106); fill: rgb(0, 116, 106);" transform="matrix(1, 0, 0, -1, 0, 0)"/>
    <rect x="1627.811" y="-992.096" width="219.21" height="44.68" style="fill: rgb(0, 116, 106); stroke: rgb(0, 116, 106); stroke-width: 0px;" transform="matrix(1, 0, 0, -1, 0, 0)"/>
    <rect x="1705.521" y="-1106.877" width="133.72" height="49.85" style="stroke: rgb(0, 116, 106); stroke-width: 0px; fill: rgb(0, 116, 106);" transform="matrix(1, 0, 0, -1, 0, 0)"/>
    <rect x="1984.641" y="-1217.786" width="55.57" height="270.12" style="stroke: rgb(0, 0, 0); fill: rgb(0, 116, 106); stroke-width: 0px;" transform="matrix(1, 0, 0, -1, 0, 0)"/>
    <rect x="2196.621" y="-1217.527" width="55.57" height="270.12" style="stroke: rgb(0, 0, 0); fill: rgb(0, 116, 106); stroke-width: 0px;" transform="matrix(1, 0, 0, -1, 0, 0)"/>
    <path d="M 1040.419 2698.617 C 891.419 2674.617 799.419 2624.617 752.419 2540.617 C 701.419 2447.617 693.419 2401.617 688.419 2159.617 C 680.419 1818.617 703.419 1705.617 800.419 1610.617 C 842.419 1569.617 867.419 1554.617 921.419 1537.617 C 1022.419 1506.617 1168.419 1494.617 1360.419 1500.617 C 1595.419 1508.617 1704.419 1536.617 1778.419 1611.617 C 1863.419 1696.617 1888.419 1807.617 1889.419 2097.617 C 1889.419 2506.617 1835.419 2620.617 1610.419 2683.617 C 1564.419 2696.617 1497.419 2700.617 1320.419 2703.617 C 1194.419 2704.617 1067.419 2702.617 1040.419 2698.617 Z M 1481.419 2426.617 C 1539.419 2411.617 1580.419 2365.617 1594.419 2297.617 C 1608.419 2231.617 1608.419 1973.617 1594.419 1907.617 C 1588.419 1879.617 1572.419 1843.617 1559.419 1827.617 C 1519.419 1780.617 1479.419 1772.617 1280.419 1772.617 C 1120.419 1772.617 1096.419 1774.617 1060.419 1792.617 C 994.419 1825.617 975.419 1878.617 968.419 2039.617 C 962.419 2185.617 976.419 2327.617 1000.419 2364.617 C 1020.419 2393.617 1057.419 2418.617 1098.419 2427.617 C 1148.419 2439.617 1431.419 2438.617 1481.419 2426.617 Z" style="fill: rgb(0, 116, 106);"/>
    <path d="M 2360.419 2696.617 C 2186.419 2670.617 2106.419 2617.617 2073.419 2503.617 C 2058.419 2449.617 2058.419 2234.617 2074.419 2177.617 C 2095.419 2101.617 2128.419 2062.617 2197.419 2028.617 C 2284.419 1986.617 2359.419 1976.617 2662.419 1969.617 C 2906.419 1962.617 2926.419 1961.617 2952.419 1941.617 C 2975.419 1924.617 2981.419 1911.617 2983.419 1874.617 C 2990.419 1773.617 2937.419 1760.617 2575.419 1771.617 C 2370.419 1777.617 2306.419 1781.617 2148.419 1802.617 C 2080.419 1812.617 2069.419 1794.617 2084.419 1701.617 C 2108.419 1545.617 2193.419 1510.617 2570.419 1500.617 C 2935.419 1491.617 3117.419 1519.617 3195.419 1597.617 C 3250.419 1652.617 3268.419 1720.617 3269.419 1867.617 C 3269.419 2041.617 3238.419 2121.617 3151.419 2172.617 C 3076.419 2216.617 2993.419 2228.617 2695.419 2236.617 C 2355.419 2246.617 2345.419 2249.617 2345.419 2339.617 C 2345.419 2399.617 2366.419 2423.617 2431.419 2433.617 C 2503.419 2443.617 3006.419 2429.617 3119.419 2413.617 C 3229.419 2398.617 3241.419 2399.617 3248.419 2428.617 C 3255.419 2454.617 3240.419 2559.617 3226.419 2585.617 C 3194.419 2644.617 3114.419 2680.617 2975.419 2697.617 C 2875.419 2709.617 2446.419 2708.617 2360.419 2696.617 Z" style="fill: rgb(0, 116, 106);"/>
    <path d="M 3785.419 2696.617 C 3583.419 2663.617 3502.419 2590.617 3459.419 2402.617 C 3444.419 2337.617 3440.419 2281.617 3440.419 2102.617 C 3441.419 1813.617 3465.419 1701.617 3545.419 1618.617 C 3636.419 1524.617 3737.419 1502.617 4055.419 1503.617 C 4261.419 1504.617 4300.419 1507.617 4367.419 1525.617 C 4529.419 1569.617 4599.419 1649.617 4631.419 1826.617 C 4649.419 1930.617 4649.419 2276.617 4630.419 2382.617 C 4595.419 2582.617 4503.419 2665.617 4285.419 2697.617 C 4205.419 2709.617 3860.419 2708.617 3785.419 2696.617 Z M 4270.419 2415.617 C 4347.419 2373.617 4360.419 2330.617 4360.419 2097.617 C 4360.419 1919.617 4359.419 1910.617 4335.419 1863.617 C 4294.419 1781.617 4266.419 1772.617 4050.419 1772.617 C 3851.419 1772.617 3811.419 1780.617 3771.419 1828.617 C 3733.419 1873.617 3722.419 1949.617 3727.419 2141.617 C 3732.419 2336.617 3745.419 2381.617 3807.419 2410.617 C 3861.419 2435.617 3872.419 2436.617 4060.419 2434.617 C 4204.419 2432.617 4246.419 2428.617 4270.419 2415.617 Z" style="fill: rgb(0, 116, 106);"/>
    <path d="M 1625.419 1082.617 L 1625.419 947.617 L 1735.419 947.617 C 1838.419 947.617 1845.419 948.617 1845.419 967.617 C 1845.419 984.617 1837.419 986.617 1763.419 989.617 L 1680.419 992.617 L 1680.419 1082.617 L 1680.419 1172.617 L 1763.419 1175.617 C 1837.419 1178.617 1845.419 1180.617 1845.419 1197.617 C 1845.419 1216.617 1838.419 1217.617 1735.419 1217.617 L 1625.419 1217.617 L 1625.419 1082.617 Z" style="fill: rgb(0, 116, 106);"/>
    <path d="M 1985.419 1082.617 L 1985.419 947.617 L 2010.419 947.617 C 2035.419 947.617 2035.419 948.617 2035.419 1038.617 C 2035.419 1088.617 2034.941 1134.335 2039.941 1132.335 C 2043.262 1129.376 2086.045 1084.132 2125.419 1035.617 C 2166.452 985.057 2188.984 956.525 2196.931 947.517 C 2198.036 946.265 2204.455 953.017 2207.133 952.953 C 2214.284 952.782 2220.705 948.046 2226.419 947.617 L 2255.419 947.617 L 2255.419 1082.617 L 2255.419 1217.617 L 2225.419 1217.617 L 2196.419 1217.617 L 2196.398 1126.617 L 2196.377 1035.617 L 2116.419 1126.617 C 2072.747 1180.854 2040.996 1217.089 2040.039 1217.159 C 2032.162 1217.739 2021.514 1217.617 2014.419 1217.617 L 1985.419 1217.617 L 1985.419 1082.617 Z" style="fill: rgb(0, 116, 106);"/>
    <path d="M 2395.419 1082.617 L 2395.419 947.617 L 2505.419 947.617 C 2608.419 947.617 2615.419 948.617 2615.419 967.617 C 2615.419 984.617 2607.419 986.617 2533.419 989.617 L 2450.419 992.617 L 2450.419 1082.617 L 2450.419 1172.617 L 2533.419 1175.617 C 2607.419 1178.617 2615.419 1180.617 2615.419 1197.617 C 2615.419 1216.617 2608.419 1217.617 2505.419 1217.617 L 2395.419 1217.617 L 2395.419 1082.617 Z" style="fill: rgb(0, 116, 106);"/>
    <path d="M 2755.419 1082.617 L 2755.419 947.617 C 2755.419 947.617 2805.198 947.529 2805.197 947.695 C 2805.195 948.033 2805.241 948.051 2805.247 948.87 C 2805.255 950.175 2805.244 953.687 2805.259 955.571 C 2805.334 964.832 2805.419 980.973 2805.419 997.617 L 2805.419 1047.617 L 2848.419 1047.617 C 2887.419 1047.617 2892.419 1044.617 2923.419 997.617 C 2937.067 976.008 2945.129 962.557 2952.446 954.073 C 2954.048 952.215 2954.109 949.484 2956.617 949.015 C 2962.744 947.868 2974.366 947.617 2980.419 947.617 C 2991.019 947.617 3009.447 948.224 3014.078 948.26 C 3015.323 948.27 2997.435 972.989 2976.564 1001.408 L 2941.783 1046.014 L 2970.419 1063.617 C 3000.419 1090.617 3005.419 1159.617 2979.419 1195.617 C 2965.419 1215.617 2956.419 1217.617 2859.419 1217.617 L 2755.419 1217.617 L 2755.419 1082.617 Z M 2935.374 1171.948 C 2939.491 1171.89 2945.323 1168.747 2945.344 1163.706 C 2945.376 1156.135 2945.419 1145.207 2945.419 1131.617 L 2945.419 1106.159 C 2945.368 1102.102 2941.904 1097.807 2937.843 1097.968 L 2875.419 1097.617 L 2805.419 1097.617 L 2805.419 1130.617 C 2805.419 1144.098 2805.326 1160.042 2805.431 1168.056 C 2805.474 1171.347 2805.266 1172.585 2806.67 1172.533 C 2815.621 1172.2 2914.011 1172.25 2935.374 1171.948 Z" style="fill: rgb(0, 116, 106);"/>
    <path d="M 3144.843 1197.12 C 3136.006 1188.026 3125.419 1160.617 3125.419 1082.617 C 3125.419 1004.617 3135.242 980.124 3148.187 969.017 C 3161.095 957.942 3178.685 944.298 3264.685 944.298 C 3381.685 944.298 3395.419 955.617 3395.419 1045.617 L 3395.419 1107.617 L 3330.419 1107.617 C 3287.759 1107.617 3271.545 1107.381 3261.528 1107.095 C 3260.797 1107.074 3261.428 1105.317 3261.297 1102.775 C 3261.084 1098.647 3261.164 1092.302 3261.274 1087.183 C 3261.313 1085.347 3261.319 1079.968 3261.319 1078.598 C 3261.319 1056.598 3269.419 1057.617 3305.419 1057.617 C 3340.419 1057.617 3345.419 1054.617 3345.419 1034.617 C 3345.419 998.617 3326.419 988.862 3264.419 988.862 C 3187.419 988.862 3175.419 1000.617 3175.419 1082.617 C 3175.419 1164.617 3187.419 1175.958 3264.419 1175.958 C 3304.419 1175.958 3332.969 1173.326 3336.898 1161.138 C 3343.471 1140.746 3396.366 1147.368 3395.419 1165.617 C 3393.346 1205.562 3364.419 1222.18 3266.419 1222.18 C 3182.419 1222.18 3155.174 1207.751 3144.843 1197.12 Z" style="fill: rgb(0, 116, 106);"/>
    <path d="M 3555.419 1139.542 C 3612.419 1065.42 3615.419 1057.513 3615.419 1006.122 C 3615.419 953.742 3616.419 950.777 3640.419 950.777 C 3664.419 950.777 3665.419 953.742 3665.419 1003.157 C 3665.419 1052.572 3669.419 1061.466 3724.419 1134.6 L 3787.945 1217.963 L 3756.613 1217.896 C 3742.539 1217.73 3732.646 1217.605 3725.216 1217.25 C 3724.162 1217.2 3702.061 1186.85 3664.419 1138.553 L 3639.419 1105.94 L 3599.419 1161.284 C 3580.22 1187.296 3554.098 1217.457 3552.418 1217.506 C 3544.639 1217.731 3538.088 1217.852 3527.301 1217.852 L 3494.419 1217.617 L 3555.419 1139.542 Z" style="fill: rgb(0, 116, 106);"/>
    <path d="M 1705.419 1082.617 C 1705.419 1058.617 1707.419 1057.617 1770.419 1057.617 C 1833.419 1057.617 1835.419 1058.617 1835.419 1082.617 C 1835.419 1106.617 1833.419 1107.617 1770.419 1107.617 C 1707.419 1107.617 1705.419 1106.617 1705.419 1082.617 Z" style="fill: rgb(0, 116, 106);"/>
    <path d="M 2475.419 1082.617 C 2475.419 1075.974 2475.642 1065.534 2475.644 1061.625 C 2475.645 1060.616 2475.374 1058.017 2476.175 1058.013 C 2540.397 1057.723 2499.2 1057.617 2540.419 1057.617 C 2603.419 1057.617 2605.419 1058.617 2605.419 1082.617 C 2605.419 1106.617 2603.419 1107.617 2540.419 1107.617 C 2506.073 1107.617 2540.665 1107.644 2475.412 1107.323 C 2474.726 1107.32 2475.237 1106.313 2475.243 1105.525 C 2475.414 1082.923 2475.419 1092.211 2475.419 1082.617 Z" style="fill: rgb(0, 116, 106);"/>
    <rect x="3615.572" y="-1022.225" width="50.08" height="73.418" style="fill: rgb(0, 116, 106); fill-rule: nonzero; stroke: rgb(0, 116, 106);" transform="matrix(1, 0, 0, -1, 0, 0)"/>
  </g>
</svg>