<svg id="Layer_1" data-name="Layer 1" xmlns="http://www.w3.org/2000/svg" viewBox="0 0 469.95 209.5"><defs><style>.cls-1{fill:#0063ac;}</style></defs><g id="OSO_HOTWATER_GREY" data-name="OSO HOTWATER GREY"><g id="HOTWATER"><path id="R" class="cls-1" d="M593.5,401.78h6.37c.46,0,.62-.3.36-.68L592.47,390a.3.3,0,0,1,.23-.5c4.61-.76,5.65-3.26,5.65-10,0-8.53-1.69-10.23-10.27-10.23H569.82a.66.66,0,0,0-.65.65v31.2a.65.65,0,0,0,.65.65h5.47a.65.65,0,0,0,.65-.65V390.47a.65.65,0,0,1,.65-.65h8.27a.73.73,0,0,1,.54.29L593,401.49A.65.65,0,0,0,593.5,401.78Zm-17.56-26a.65.65,0,0,1,.65-.65h11.49c3.71,0,4,.36,4,4.4s-.33,4.4-4,4.4H576.59a.65.65,0,0,1-.65-.65Z" transform="translate(-185.81 -192.78)"/><g id="E"><rect id="E_BAR" data-name="E BAR" class="cls-1" x="351.15" y="189.82" width="15.51" height="5.87" rx="0.65"/><path id="E_MAIN" data-name="E MAIN" class="cls-1" d="M553.52,369.28H527.46a.66.66,0,0,0-.65.65v31.2a.65.65,0,0,0,.65.65h26.06a.66.66,0,0,0,.65-.65v-4.56a.66.66,0,0,0-.65-.65H534.23a.66.66,0,0,1-.65-.65V375.8a.65.65,0,0,1,.65-.65h19.29a.66.66,0,0,0,.65-.65v-4.57A.66.66,0,0,0,553.52,369.28Z" transform="translate(-185.81 -192.78)"/></g><path id="T" class="cls-1" d="M511.73,369.28H480.59a.66.66,0,0,0-.65.65v4.57a.66.66,0,0,0,.65.65h12.19v25.67c0,.53.29,1,.65,1h5.47c.36,0,.65-.43.65-1V375.15h12.18a.65.65,0,0,0,.65-.65v-4.57A.66.66,0,0,0,511.73,369.28Z" transform="translate(-185.81 -192.78)"/><path id="A" class="cls-1" d="M462.44,401.78h5.84a.61.61,0,0,0,.62-.84l-9.75-31.2a.7.7,0,0,0-.62-.46H448.37a.7.7,0,0,0-.62.46L438,400.94a.62.62,0,0,0,.62.84h5.85a.68.68,0,0,0,.62-.47l2.22-8.08a.69.69,0,0,1,.63-.47h11a.68.68,0,0,1,.62.47l2.22,8.08A.7.7,0,0,0,462.44,401.78ZM449.2,386.34l3-10.87a.44.44,0,0,1,.41-.32h1.69a.46.46,0,0,1,.42.32l3,10.87a.42.42,0,0,1-.42.55h-7.66A.41.41,0,0,1,449.2,386.34Z" transform="translate(-185.81 -192.78)"/><path id="W" class="cls-1" d="M417.29,369.81l-4,20.87c-.14.75-.43.76-.63,0l-5.83-20.94a.71.71,0,0,0-.63-.48h-5.43a.71.71,0,0,0-.63.48l-5.83,20.94c-.2.74-.49.73-.63,0l-4-20.87a.69.69,0,0,0-.64-.53h-5.37a.62.62,0,0,0-.63.79l6.92,31.2a.68.68,0,0,0,.64.51h6.2a.68.68,0,0,0,.63-.47l5.7-20.74c.17-.63.46-.63.63,0l5.7,20.74a.68.68,0,0,0,.63.47h6.2a.68.68,0,0,0,.64-.51l6.92-31.2a.62.62,0,0,0-.63-.79h-5.37A.69.69,0,0,0,417.29,369.81Z" transform="translate(-185.81 -192.78)"/><path id="T-2" data-name="T" class="cls-1" d="M367.45,369.28H336.31a.66.66,0,0,0-.65.65v4.57a.65.65,0,0,0,.65.65h12.18v25.67c0,.53.29,1,.65,1h5.47c.36,0,.65-.43.65-1V375.15h12.19a.66.66,0,0,0,.65-.65v-4.57A.66.66,0,0,0,367.45,369.28Z" transform="translate(-185.81 -192.78)"/><path id="O" class="cls-1" d="M304.9,368.78c-14,0-16.75,2.77-16.75,16.75s2.77,16.75,16.76,16.75,16.74-2.76,16.74-16.75S318.89,368.78,304.9,368.78Zm0,27.64c-9.16,0-10-.9-10-10.89s.82-10.88,10-10.88,10,.9,10,10.88S314.06,396.42,304.91,396.42Z" transform="translate(-185.81 -192.78)"/><g id="H"><rect id="H_BAR" data-name="H BAR" class="cls-1" x="57.06" y="176.5" width="6.77" height="32.5" rx="0.65"/><path id="H_MAIN" data-name="H MAIN" class="cls-1" d="M266.38,369.93v12a.65.65,0,0,1-.65.65H253.67a.66.66,0,0,0-.65.65v4.57a.66.66,0,0,0,.65.65h12.06a.65.65,0,0,1,.65.65v12a.66.66,0,0,0,.65.65h5.47a.65.65,0,0,0,.65-.65v-31.2a.66.66,0,0,0-.65-.65H267A.66.66,0,0,0,266.38,369.93Z" transform="translate(-185.81 -192.78)"/></g></g><g id="OSO"><path id="O-2" data-name="O" class="cls-1" d="M583.76,192.78c-60,0-72,12-72,72s12,72,72,72,72-12,72-72S643.76,192.78,583.76,192.78Zm0,111.5c-34.38,0-37.5-3.29-37.5-39.5s3.13-39.5,37.5-39.5,37.5,3.3,37.5,39.5S618.14,304.28,583.76,304.28Z" transform="translate(-185.81 -192.78)"/><path id="S" class="cls-1" d="M420.79,248.53c-35.5,0-37.5-1-37.5-11.62s2-11.63,37.5-11.63a434.19,434.19,0,0,1,63.82,4.64c3.52.54,5.73-1.91,5.73-5.47,0-25.57-10.49-31.67-69.55-31.67-60,0-72,7.36-72,44.13s12,44.12,72,44.12c35.5,0,37.5,1,37.5,11.63s-2,11.62-37.5,11.62A434.38,434.38,0,0,1,357,299.65c-3.52-.55-5.73,1.91-5.73,5.46,0,25.58,10.49,31.67,69.56,31.67,60,0,72-7.35,72-44.12S480.79,248.53,420.79,248.53Z" transform="translate(-185.81 -192.78)"/><path id="O-3" data-name="O" class="cls-1" d="M257.81,192.78c-60,0-72,12-72,72s12,72,72,72,72-12,72-72S317.81,192.78,257.81,192.78Zm0,111.5c-34.38,0-37.5-3.29-37.5-39.5s3.13-39.5,37.5-39.5,37.5,3.3,37.5,39.5S292.19,304.28,257.81,304.28Z" transform="translate(-185.81 -192.78)"/></g></g></svg>